<?xml version="1.0" standalone="no"?>
<!DOCTYPE svg PUBLIC "-//W3C//DTD SVG 20010904//EN"
 "http://www.w3.org/TR/2001/REC-SVG-20010904/DTD/svg10.dtd">
<svg version="1.0" xmlns="http://www.w3.org/2000/svg"
 width="300.000000pt" height="238.000000pt" viewBox="0 0 300.000000 238.000000"
 preserveAspectRatio="xMidYMid meet">
<metadata>
Created by potrace 1.16, written by Peter Selinger 2001-2019
</metadata>
<g transform="translate(0.000000,238.000000) scale(0.100000,-0.100000)"
fill="#000000" stroke="none">
<path d="M2033 1925 c-128 -28 -264 -122 -353 -244 l-45 -61 -17 35 c-21 39
-60 52 -131 41 -82 -13 -134 -61 -144 -135 -5 -35 3 -58 66 -183 76 -152 99
-223 106 -328 l5 -65 -19 80 c-40 167 -101 294 -201 418 -137 169 -314 266
-468 255 -85 -6 -135 -32 -200 -102 -73 -81 -95 -145 -90 -266 4 -80 9 -106
36 -163 54 -118 150 -222 377 -407 172 -140 267 -190 363 -190 84 0 131 32
173 115 l20 40 -6 -45 c-3 -25 -15 -84 -28 -133 -20 -80 -21 -90 -7 -115 13
-23 23 -27 65 -30 126 -8 151 12 170 138 8 52 17 109 20 126 l5 31 58 -54 c70
-66 167 -138 215 -158 72 -30 157 -12 192 41 30 44 26 145 -9 215 -36 73 -122
158 -230 230 -72 47 -85 60 -70 65 166 61 382 204 472 314 25 30 57 80 71 110
23 48 26 68 26 155 0 84 -4 107 -22 141 -66 124 -210 170 -400 129z m-1052
-316 c45 -15 108 -77 168 -164 98 -141 135 -284 92 -353 -24 -37 -55 -52 -110
-52 -80 0 -220 58 -318 131 -80 60 -103 119 -62 160 17 17 28 20 57 14 21 -3
47 -13 58 -20 33 -21 36 -7 8 31 -36 46 -55 115 -44 155 14 48 38 79 73 94 39
17 37 17 78 4z m1078 -25 c32 -41 28 -95 -10 -138 -36 -41 -140 -96 -181 -96
-118 0 -86 145 51 232 60 37 112 38 140 2z"/>
<path d="M1464 1923 c-58 -11 -80 -101 -36 -145 28 -28 91 -31 120 -5 45 40
31 120 -24 143 -18 8 -35 13 -36 13 -2 -1 -13 -4 -24 -6z"/>
<path d="M1195 1815 c-46 -45 -19 -115 45 -115 65 0 94 79 44 119 -35 27 -59
26 -89 -4z"/>
</g>
</svg>
